# xmcd
#
# Track frame offsets:
#	300
#	16952
#	35001
#	50313
#	64332
#	81395
#	98604
#	115446
#	133247
#
# Disc length: 2012 seconds
#
# Revision: 1
# Processed by: cddbd v1.5.2PL0 Copyright (c) Steve Scherf et al.
# Submitted via: audiograbber 1.83.01
#
DISCID=7d07d809
DTITLE=Singers Solution SS-C449 - Singers Solution SS-C449
DYEAR=2017
DGENRE=Karaoke
TTITLE0=Florida Georgia Line - Tim McGraw - May We All
TTITLE1=Keith Urban - Blue Aint Your Color
TTITLE2=Carrie Underwood - Dirty Laundry
TTITLE3=Billy Currington - Dont hurt like it used to
TTITLE4=Luke Bryan - Move
TTITLE5=Cole Swindell - Middle Of A Memory
TTITLE6=Maren Morris - 80's Mercedes
TTITLE7=Brett Eldridge - Wanna Be That Song
TTITLE8=Niall Horan - This Town
EXTD=
EXTT0=
EXTT1=
EXTT2=
EXTT3=
EXTT4=
EXTT5=
EXTT6=
EXTT7=
EXTT8=
PLAYORDER=
